<?xml version="1.0" encoding="utf-8"?>
<!-- Generator: Adobe Illustrator 25.4.1, SVG Export Plug-In . SVG Version: 6.00 Build 0)  -->
<svg version="1.1" id="_x31_" xmlns="http://www.w3.org/2000/svg" xmlns:xlink="http://www.w3.org/1999/xlink" x="0px" y="0px"
	 width="303.5px" height="110.8px" viewBox="0 0 303.5 110.8" style="enable-background:new 0 0 303.5 110.8;" xml:space="preserve"
	>
<style type="text/css">
	.st0{fill:#FFFFFF;}
	.st1{fill:#CB2026;}
</style>
<path class="st0" d="M67.2,38.2h14.1v70.6H67.2v-9.9c-4.7,5.3-13.5,11.9-27.8,11.9C19,110.8,0,98.3,0,73.4
	c0-24.3,18.8-36.9,39.5-36.9c15.6,0,24,7.5,27.8,11.7V38.2z M14.5,73.4c0,15.1,9.8,26.5,26.6,26.5c17.2,0,27-12.4,27-26.3
	c0-18.2-14.5-26.2-27-26.2C27.2,47.4,14.5,56.3,14.5,73.4z"/>
<path class="st0" d="M117.7,38.2h14.1v7.5c4.5-5.8,11.5-9.2,20.1-9.2c14.7,0,20.5,9,22.1,11.4c7.8-10.7,19-11.4,24.4-11.4
	c24.1,0,26.4,17.5,26.4,27.5v44.7h-14.1V66c0-8-1.2-18.5-14.5-18.5c-16.2,0-18,13.6-18,22.1v39.3h-14.1V67c0-4.9,0.2-19.5-14.7-19.5
	c-16,0-17.8,14.5-17.8,23v38.4h-14.1L117.7,38.2L117.7,38.2z"/>
<path class="st0" d="M275.5,38.2v70.6h-14.1V38.2H275.5z"/>
<path class="st1" d="M268.7,20.4c2.9,0,5.3-1,7.3-3c2-2,3-4.4,3-7.2c0-2.8-1-5.2-3-7.2S271.5,0,268.7,0c-2.7,0-5,1-7,3.1
	c-2,2.1-3,4.4-3,7.1c0,2.7,1,5.1,3,7.2C263.7,19.4,266,20.4,268.7,20.4z"/>
<path class="st0" d="M299,46.2c0.3-0.3,0.5-0.8,0.5-1.4c0-0.8-0.2-1.4-0.7-1.8c-0.5-0.4-1.2-0.6-2.3-0.6H294v8.3h1.4v-3.3h1.2
	l1.9,3.3h1.6l-2.2-3.7C298.3,46.8,298.6,46.5,299,46.2z M296.4,46.1h-1v-2.6h0.9c0.6,0,1,0.1,1.2,0.3c0.2,0.2,0.4,0.5,0.4,1
	c0,0.4-0.1,0.7-0.4,1C297.2,46,296.9,46.1,296.4,46.1z"/>
<path class="st0" d="M303,43.6c-0.4-0.8-0.9-1.6-1.5-2.2c-0.6-0.6-1.4-1.1-2.2-1.5s-1.8-0.5-2.7-0.5c-1,0-2,0.2-2.8,0.5
	c-0.9,0.3-1.6,0.8-2.2,1.5s-1.1,1.4-1.5,2.2c-0.3,0.8-0.5,1.8-0.5,2.8c0,1,0.2,1.9,0.5,2.8c0.3,0.8,0.8,1.6,1.5,2.2s1.4,1.1,2.2,1.5
	c0.9,0.3,1.8,0.5,2.8,0.5s1.9-0.2,2.8-0.5s1.6-0.8,2.2-1.5s1.1-1.4,1.5-2.2c0.3-0.8,0.5-1.8,0.5-2.8C303.6,45.4,303.4,44.5,303,43.6
	z M302,48.8c-0.3,0.7-0.7,1.3-1.3,1.9c-0.5,0.5-1.2,1-1.9,1.2s-1.5,0.4-2.3,0.4c-0.9,0-1.6-0.2-2.4-0.5c-0.7-0.3-1.4-0.7-1.9-1.3
	c-0.5-0.5-0.9-1.2-1.2-1.9c-0.3-0.7-0.4-1.5-0.4-2.3c0-1.2,0.2-2.2,0.8-3.1s1.2-1.6,2.1-2.1s1.9-0.8,3-0.8c0.9,0,1.6,0.2,2.4,0.5
	s1.3,0.7,1.9,1.3c0.5,0.5,0.9,1.2,1.2,1.9c0.3,0.7,0.4,1.5,0.4,2.3C302.5,47.3,302.3,48.1,302,48.8z"/>
</svg>
