<?xml version="1.0" encoding="utf-8"?>
<!-- Generator: Adobe Illustrator 25.4.1, SVG Export Plug-In . SVG Version: 6.00 Build 0)  -->
<svg version="1.1" id="_x31_" xmlns="http://www.w3.org/2000/svg" xmlns:xlink="http://www.w3.org/1999/xlink" x="0px" y="0px"
	 width="559.6px" height="146.4px" viewBox="0 0 559.6 146.4" style="enable-background:new 0 0 559.6 146.4;" xml:space="preserve"
	>
<style type="text/css">
	.st0{fill:#FFFFFF;}
	.st1{fill:#CC0000;}
</style>
<path class="st0" d="M322.3,73.8h14.1v70.6h-14.1v-9.9c-4.7,5.3-13.5,11.9-27.8,11.9c-20.5,0-39.5-12.6-39.5-37.4
	c0-24.3,18.8-36.9,39.5-36.9c15.6,0,24,7.5,27.8,11.7V73.8z M269.5,109c0,15.1,9.8,26.5,26.6,26.5c17.2,0,27-12.4,27-26.3
	c0-18.2-14.5-26.2-27-26.2C282.2,83,269.5,91.8,269.5,109z"/>
<path class="st0" d="M372.8,73.8h14.1v7.5c4.5-5.8,11.5-9.2,20.1-9.2c14.7,0,20.5,9,22.1,11.4c7.8-10.7,19-11.4,24.4-11.4
	c24,0,26.4,17.5,26.4,27.5v44.7h-14.1v-42.8c0-8-1.2-18.5-14.5-18.5c-16.2,0-18,13.6-18,22.1v39.3h-14.1v-41.8
	c0-4.9,0.2-19.5-14.7-19.5c-16,0-17.8,14.4-17.8,22.9v38.4h-14.1L372.8,73.8L372.8,73.8z"/>
<path class="st0" d="M530.5,73.8v70.6h-14.1V73.8H530.5z"/>
<path class="st1" d="M523.8,56c2.8,0,5.3-1,7.3-3c2-2,3-4.4,3-7.2c0-2.8-1-5.2-3-7.2c-2-2-4.5-2.9-7.3-2.9c-2.7,0-5,1-7,3.1
	c-2,2.1-3,4.4-3,7.1c0,2.7,1,5.1,3,7.2C518.8,54.9,521.1,56,523.8,56z"/>
<path class="st1" d="M239.3,129.9l-199.8,3.8L0,144.8h245.6C245.6,144.8,241.4,134.7,239.3,129.9z"/>
<path class="st1" d="M221.8,119.5l2.7,5.8h12.4c-1.3-2.9-2.7-5.9-4.1-8.6L68.3,98.1l-50.5,26.2l41.5-15l110.9,7l3.4,9.1h24.7
	l-3.1-7.5L221.8,119.5z"/>
<polygon class="st1" points="225.3,102 185.5,93 182.9,93.7 182,92.2 89.9,71.2 35.5,107 82.7,80.3 159.9,94.2 163.5,101.4 
	188.9,104.8 186,99 213.8,103.7 216.4,108.5 229.7,110.3 "/>
<polygon class="st1" points="130.2,48.4 134.1,54.1 164.9,65.6 156.7,53.2 117.1,36.5 70.6,74.6 112.8,42.2 "/>
<polygon class="st1" points="217.4,88.2 188.1,78.3 177.4,84.7 174.3,80 189.2,71.2 195.6,73.3 198.9,78.2 214.9,84.2 209.4,75.7 
	189.9,67.4 173.6,78.9 169.1,71.9 106.3,50.7 55.9,87.9 101.4,56.9 144.5,69.4 150.1,78.1 177.5,85.4 178.4,86.5 187.3,83 
	205.2,88.4 208.2,93.5 222.7,97.3 "/>
<polygon class="st1" points="151.9,46.4 147.4,40.1 183.8,56.9 188.3,62.9 206,70.9 197.1,58.8 126.8,23.2 90.1,56.5 120.4,32.1 "/>
<polygon class="st1" points="169.8,40 174.9,45.9 194.6,55.7 187.4,47.1 132.4,14.8 104,41.6 129.7,19.1 "/>
<polygon class="st1" points="155.1,24.3 159.6,28.9 184.4,43.5 174.5,32.6 135.9,9.6 118.4,26.1 134.4,12.1 "/>
<polygon class="st1" points="140.9,10.1 145.1,14.1 170.4,28.3 162.1,19.9 137.9,6.4 129.1,14.8 137.1,7.8 "/>
<polygon class="st1" points="158.3,16.1 152,10.1 139.9,2.8 135.2,8.1 138.7,5.1 "/>
<polygon class="st1" points="147.7,5.9 141.4,0 138.7,3 140.6,1.6 "/>
<path class="st0" d="M558.1,79.4c-0.4-0.8-0.9-1.6-1.5-2.2c-0.6-0.6-1.4-1.1-2.2-1.4c-0.8-0.3-1.8-0.5-2.7-0.5c-1,0-2,0.2-2.8,0.5
	c-0.8,0.3-1.6,0.8-2.2,1.4s-1.1,1.4-1.5,2.2c-0.3,0.8-0.5,1.8-0.5,2.8s0.2,1.9,0.5,2.8s0.8,1.6,1.5,2.2s1.4,1.1,2.2,1.4
	c0.8,0.3,1.8,0.5,2.8,0.5c1,0,1.9-0.2,2.8-0.5c0.8-0.3,1.6-0.8,2.2-1.4s1.1-1.4,1.5-2.2s0.5-1.8,0.5-2.8
	C558.6,81.2,558.4,80.3,558.1,79.4z M557.1,84.6c-0.3,0.7-0.7,1.3-1.3,1.9c-0.5,0.5-1.2,0.9-1.9,1.2s-1.5,0.4-2.3,0.4
	c-0.9,0-1.7-0.2-2.4-0.5c-0.7-0.3-1.3-0.7-1.9-1.3c-0.5-0.5-0.9-1.2-1.2-1.9c-0.3-0.7-0.4-1.5-0.4-2.3c0-1.2,0.2-2.2,0.8-3.1
	s1.2-1.6,2.1-2.1s1.9-0.8,3-0.8c0.9,0,1.7,0.2,2.4,0.5s1.3,0.7,1.9,1.3c0.5,0.5,0.9,1.2,1.2,1.9c0.3,0.7,0.4,1.5,0.4,2.3
	C557.5,83.1,557.4,83.9,557.1,84.6z"/>
<path class="st0" d="M554,82c0.3-0.3,0.5-0.8,0.5-1.4c0-0.8-0.2-1.4-0.7-1.8s-1.2-0.6-2.3-0.6h-2.4v8.3h1.4v-3.3h1.2l1.9,3.3h1.6
	l-2.2-3.7C553.4,82.6,553.7,82.3,554,82z M551.4,81.9h-1v-2.6h0.9c0.6,0,1,0.1,1.2,0.3c0.2,0.2,0.4,0.5,0.4,1c0,0.4-0.1,0.7-0.4,1
	C552.3,81.8,551.9,81.9,551.4,81.9z"/>
</svg>
